# Blender v2.77 (sub 0) OBJ File: 'untitled.blend'
# www.blender.org
mtllib body.mtl
o Cylinder_Cylinder.001
v 1.331784 -0.295860 -1.833852
v 1.331784 2.015375 -1.202109
v 1.526874 -0.295860 -1.814638
v 1.403627 2.015375 -1.195033
v 1.714467 -0.295860 -1.757732
v 1.472709 2.015375 -1.174077
v 1.887354 -0.295860 -1.665322
v 1.536376 2.015375 -1.140047
v 2.038890 -0.295860 -1.540959
v 1.592180 2.015375 -1.094249
v 2.163253 -0.295860 -1.389422
v 1.637978 2.015375 -1.038445
v 2.255663 -0.295860 -1.216536
v 1.672008 2.015375 -0.974778
v 2.312569 -0.295860 -1.028943
v 1.692964 2.015375 -0.905696
v 2.331784 -0.295860 -0.833852
v 1.700040 2.015375 -0.833852
v 2.312569 -0.295860 -0.638762
v 1.692964 2.015375 -0.762009
v 2.255663 -0.295860 -0.451169
v 1.672008 2.015375 -0.692927
v 2.163253 -0.295860 -0.278282
v 1.637978 2.015375 -0.629260
v 2.038890 -0.295860 -0.126746
v 1.592180 2.015375 -0.573456
v 1.887354 -0.295860 -0.002383
v 1.536376 2.015375 -0.527658
v 1.714467 -0.295860 0.090027
v 1.472709 2.015375 -0.493628
v 1.526874 -0.295860 0.146933
v 1.403627 2.015375 -0.472672
v 1.331783 -0.295860 0.166148
v 1.331784 2.015375 -0.465596
v 1.136693 -0.295860 0.146933
v 1.259940 2.015375 -0.472672
v 0.949100 -0.295860 0.090027
v 1.190858 2.015375 -0.493628
v 0.776213 -0.295860 -0.002383
v 1.127191 2.015375 -0.527659
v 0.624676 -0.295860 -0.126746
v 1.071387 2.015375 -0.573456
v 0.500314 -0.295860 -0.278283
v 1.025589 2.015375 -0.629260
v 0.407904 -0.295860 -0.451170
v 0.991559 2.015375 -0.692927
v 0.350998 -0.295860 -0.638763
v 0.970603 2.015375 -0.762010
v 0.331784 -0.295860 -0.833853
v 0.963527 2.015375 -0.833853
v 0.350998 -0.295860 -1.028944
v 0.970603 2.015375 -0.905696
v 0.407904 -0.295860 -1.216537
v 0.991559 2.015375 -0.974779
v 0.500315 -0.295860 -1.389424
v 1.025590 2.015375 -1.038445
v 0.624678 -0.295860 -1.540960
v 1.071387 2.015375 -1.094249
v 0.776214 -0.295860 -1.665323
v 1.127192 2.015375 -1.140047
v 0.949101 -0.295860 -1.757732
v 1.190858 2.015375 -1.174077
v 1.136695 -0.295860 -1.814638
v 1.259941 2.015375 -1.195033
vn 0.0946 0.2625 -0.9603
vn 0.2801 0.2625 -0.9234
vn 0.4549 0.2625 -0.8510
vn 0.6121 0.2625 -0.7459
vn 0.7459 0.2625 -0.6121
vn 0.8510 0.2625 -0.4549
vn 0.9234 0.2625 -0.2801
vn 0.9603 0.2625 -0.0946
vn 0.9603 0.2625 0.0946
vn 0.9234 0.2625 0.2801
vn 0.8510 0.2625 0.4549
vn 0.7459 0.2625 0.6121
vn 0.6121 0.2625 0.7459
vn 0.4549 0.2625 0.8510
vn 0.2801 0.2625 0.9234
vn 0.0946 0.2625 0.9603
vn -0.0946 0.2625 0.9603
vn -0.2801 0.2625 0.9234
vn -0.4549 0.2625 0.8510
vn -0.6122 0.2625 0.7459
vn -0.7459 0.2625 0.6121
vn -0.8510 0.2625 0.4549
vn -0.9234 0.2625 0.2801
vn -0.9603 0.2625 0.0946
vn -0.9603 0.2625 -0.0946
vn -0.9234 0.2625 -0.2801
vn -0.8510 0.2625 -0.4549
vn -0.7459 0.2625 -0.6122
vn -0.6121 0.2625 -0.7459
vn -0.4549 0.2625 -0.8510
vn 0.0000 1.0000 -0.0000
vn -0.2801 0.2625 -0.9234
vn -0.0946 0.2625 -0.9603
vn 0.0000 -1.0000 -0.0000
usemtl None
s off
f 1//1 2//1 4//1 3//1
f 3//2 4//2 6//2 5//2
f 5//3 6//3 8//3 7//3
f 7//4 8//4 10//4 9//4
f 9//5 10//5 12//5 11//5
f 11//6 12//6 14//6 13//6
f 13//7 14//7 16//7 15//7
f 15//8 16//8 18//8 17//8
f 17//9 18//9 20//9 19//9
f 19//10 20//10 22//10 21//10
f 21//11 22//11 24//11 23//11
f 23//12 24//12 26//12 25//12
f 25//13 26//13 28//13 27//13
f 27//14 28//14 30//14 29//14
f 29//15 30//15 32//15 31//15
f 31//16 32//16 34//16 33//16
f 33//17 34//17 36//17 35//17
f 35//18 36//18 38//18 37//18
f 37//19 38//19 40//19 39//19
f 39//20 40//20 42//20 41//20
f 41//21 42//21 44//21 43//21
f 43//22 44//22 46//22 45//22
f 45//23 46//23 48//23 47//23
f 47//24 48//24 50//24 49//24
f 49//25 50//25 52//25 51//25
f 51//26 52//26 54//26 53//26
f 53//27 54//27 56//27 55//27
f 55//28 56//28 58//28 57//28
f 57//29 58//29 60//29 59//29
f 59//30 60//30 62//30 61//30
f 4//31 2//31 64//31 62//31 60//31 58//31 56//31 54//31 52//31 50//31 48//31 46//31 44//31 42//31 40//31 38//31 36//31 34//31 32//31 30//31 28//31 26//31 24//31 22//31 20//31 18//31 16//31 14//31 12//31 10//31 8//31 6//31
f 61//32 62//32 64//32 63//32
f 63//33 64//33 2//33 1//33
f 1//34 3//34 5//34 7//34 9//34 11//34 13//34 15//34 17//34 19//34 21//34 23//34 25//34 27//34 29//34 31//34 33//34 35//34 37//34 39//34 41//34 43//34 45//34 47//34 49//34 51//34 53//34 55//34 57//34 59//34 61//34 63//34
