# Blender v2.77 (sub 0) OBJ File: 'wandererHead.blend'
# www.blender.org
mtllib wandererHead.mtl
o Cone
v 0.000000 1.211774 1.546617
v 0.236572 1.228917 1.545684
v 0.464052 1.279689 1.542920
v 0.673699 1.362137 1.538431
v 0.857456 1.473093 1.532391
v 1.008262 1.608294 1.525031
v 1.120321 1.762543 1.516634
v 1.189326 1.929913 1.507522
v 1.212627 2.103973 1.498047
v 0.000000 1.940869 -1.498047
v 1.189326 2.278032 1.488571
v 1.120321 2.445402 1.479460
v 1.008262 2.599652 1.471063
v 0.857456 2.734852 1.463702
v 0.673699 2.845809 1.457662
v 0.464052 2.928257 1.453174
v 0.236571 2.979028 1.450410
v -0.000000 2.996171 1.449476
v -0.236572 2.979028 1.450410
v -0.464053 2.928257 1.453174
v -0.673700 2.845808 1.457662
v -0.857457 2.734852 1.463702
v -1.008263 2.599651 1.471063
v -1.120321 2.445402 1.479460
v -1.189327 2.278031 1.488571
v -1.212627 2.103972 1.498047
v -1.189326 1.929912 1.507522
v -1.120320 1.762542 1.516634
v -1.008261 1.608293 1.525031
v -0.857455 1.473092 1.532391
v -0.673698 1.362136 1.538431
v -0.464050 1.279688 1.542920
v -0.236570 1.228917 1.545684
vn 0.0694 -0.9702 -0.2323
vn 0.2088 -0.9485 -0.2381
vn 0.3498 -0.9030 -0.2497
vn 0.4917 -0.8288 -0.2671
vn 0.6310 -0.7196 -0.2896
vn 0.7594 -0.5689 -0.3158
vn 0.8619 -0.3740 -0.3424
vn 0.9201 -0.1430 -0.3646
vn 0.9201 0.1026 -0.3780
vn 0.8619 0.3346 -0.3810
vn 0.7594 0.5312 -0.3757
vn 0.6310 0.6840 -0.3660
vn 0.4917 0.7949 -0.3554
vn 0.3498 0.8705 -0.3462
vn 0.2088 0.9171 -0.3397
vn 0.0694 0.9392 -0.3363
vn -0.0694 0.9392 -0.3363
vn -0.2088 0.9171 -0.3397
vn -0.3498 0.8705 -0.3462
vn -0.4917 0.7949 -0.3554
vn -0.6310 0.6840 -0.3660
vn -0.7594 0.5312 -0.3757
vn -0.8619 0.3346 -0.3810
vn -0.9201 0.1026 -0.3780
vn -0.9201 -0.1430 -0.3646
vn -0.8619 -0.3740 -0.3424
vn -0.7594 -0.5689 -0.3158
vn -0.6310 -0.7196 -0.2896
vn -0.4917 -0.8288 -0.2671
vn -0.3498 -0.9030 -0.2497
vn -0.2088 -0.9485 -0.2381
vn -0.0694 -0.9702 -0.2323
vn 0.0000 0.0544 0.9985
usemtl None
s off
f 1//1 10//1 2//1
f 2//2 10//2 3//2
f 3//3 10//3 4//3
f 4//4 10//4 5//4
f 5//5 10//5 6//5
f 6//6 10//6 7//6
f 7//7 10//7 8//7
f 8//8 10//8 9//8
f 9//9 10//9 11//9
f 11//10 10//10 12//10
f 12//11 10//11 13//11
f 13//12 10//12 14//12
f 14//13 10//13 15//13
f 15//14 10//14 16//14
f 16//15 10//15 17//15
f 17//16 10//16 18//16
f 18//17 10//17 19//17
f 19//18 10//18 20//18
f 20//19 10//19 21//19
f 21//20 10//20 22//20
f 22//21 10//21 23//21
f 23//22 10//22 24//22
f 24//23 10//23 25//23
f 25//24 10//24 26//24
f 26//25 10//25 27//25
f 27//26 10//26 28//26
f 28//27 10//27 29//27
f 29//28 10//28 30//28
f 30//29 10//29 31//29
f 31//30 10//30 32//30
f 32//31 10//31 33//31
f 33//32 10//32 1//32
f 1//33 2//33 3//33 4//33 5//33 6//33 7//33 8//33 9//33 11//33 12//33 13//33 14//33 15//33 16//33 17//33 18//33 19//33 20//33 21//33 22//33 23//33 24//33 25//33 26//33 27//33 28//33 29//33 30//33 31//33 32//33 33//33
